<svg width="349" height="68" viewBox="0 0 349 68" fill="none" xmlns="http://www.w3.org/2000/svg">
<path d="M348.907 65.19C348.907 65.19 34.6521 66.805 29.2721 67.285C0.822109 69.82 -10.6279 34.35 12.0621 18.58L12.5671 17.05C12.4971 16.295 12.2571 16.215 11.6921 15.88C9.16711 14.38 3.25211 13.355 0.842111 11.73C0.277111 11.35 -0.377886 10.99 0.267114 10.28L26.2771 0L52.2971 10.28C52.9321 10.99 52.2871 11.355 51.7171 11.73C49.9021 12.94 40.8371 15.415 40.2521 16.265L40.2671 18.305C41.5371 18.66 46.7171 23.005 46.5071 23.985C44.8021 24.845 41.7471 28.44 40.5271 29.07C40.0471 29.315 40.0171 29.315 39.5371 29.07C38.3921 28.48 36.8771 26.185 34.8721 25.2C24.3471 20.03 11.1771 25.935 9.09711 37.6C7.90711 44.28 10.8421 51.385 15.8571 55.195C16.4021 55.61 19.1671 57.655 23.3671 58.4C24.6621 58.63 348.907 59.425 348.907 59.425V65.19Z" fill="#3014B8"/>
<path d="M187.882 52.0098V18.5098H202.632C216.667 18.5098 223.197 37.5498 213.377 47.2548C211.527 49.0798 205.627 52.0098 203.132 52.0098H187.882ZM195.382 45.5098H202.632C202.947 45.5098 206.607 43.4698 207.127 43.0048C210.107 40.3448 210.867 34.3098 209.402 30.7398C207.112 25.1648 200.647 24.7698 195.382 25.0098V45.5098Z" fill="#3014B8"/>
<path d="M52.882 21.5099L54.812 22.0849L55.487 28.4099C68.507 30.6149 68.217 50.4399 55.002 52.3799C38.152 54.8549 34.027 33.0049 49.317 28.4449C49.562 26.5749 49.077 24.5349 49.792 22.7099C50.147 21.8049 51.382 21.4349 51.382 21.2649V11.2649L52.132 10.5249L52.882 11.2649V21.5149V21.5099ZM51.247 34.1249C45.717 35.2449 45.747 45.6699 51.672 46.4899C60.212 47.6699 60.022 32.3449 51.247 34.1249Z" fill="#3014B8"/>
<path d="M231.792 28.1447C237.822 27.7547 244.152 31.3897 244.882 37.7597C245.947 47.0697 240.182 53.4897 230.682 52.4547C215.957 50.8497 216.822 29.1097 231.792 28.1447ZM231.237 34.1147C225.557 35.4047 225.937 46.0147 231.632 46.5297C240.462 47.3297 239.517 32.2347 231.237 34.1147Z" fill="#3014B8"/>
<path d="M124.762 28.1399C143.097 25.8999 143.347 55.4499 123.357 52.2849C109.662 50.1199 110.322 29.9049 124.762 28.1399ZM129.727 35.1649C123.792 29.6749 117.062 41.1699 122.752 45.5199C129.107 50.3799 134.497 39.5799 129.727 35.1649Z" fill="#3014B8"/>
<path d="M287.557 31.6897C293.552 25.8997 305.677 27.4197 308.492 35.6497C312.367 46.9797 301.392 56.1597 290.762 51.3797C283.472 48.1047 282.032 37.0247 287.562 31.6847L287.557 31.6897ZM295.752 34.1147C289.842 35.2597 289.817 45.7097 295.677 46.4597C304.092 47.5397 304.087 32.4997 295.752 34.1147Z" fill="#3014B8"/>
<path d="M148.882 29.0098V44.2598C148.882 47.6548 156.382 46.8248 156.382 42.7598V29.0098H163.382V52.0098H156.382L156.132 49.5098C153.637 53.2298 147.712 53.5848 144.362 50.7748C143.767 50.2748 141.877 47.7648 141.877 47.2598V29.0098H148.882Z" fill="#3014B8"/>
<path d="M89.8821 52.0098H82.8821V36.7598C82.8821 35.5748 80.4871 34.0848 79.2071 34.1598C77.9271 34.2348 75.3821 36.1698 75.3821 37.2598V52.0098H68.3821V29.0098H75.3821L75.1321 31.5098C78.4971 27.5798 85.2621 26.4798 88.3021 31.3448C88.6921 31.9698 89.8821 34.7598 89.8821 35.2648V52.0148V52.0098Z" fill="#3014B8"/>
<path d="M348.882 52.0098H341.882L342.137 50.0148C336.122 55.4948 325.947 51.9498 327.992 42.8648C329.162 37.6548 337.627 37.1898 341.887 37.5098C342.237 33.3998 338.612 32.9598 335.367 33.7448L331.897 36.0098L329.427 31.3298C332.852 27.4648 342.882 26.9798 346.397 30.7548C346.802 31.1898 348.387 34.4098 348.387 34.7648V51.2648C348.387 51.4148 349.022 51.6498 348.887 52.0148H348.882V52.0098ZM341.252 46.3848C341.862 45.7298 343.102 41.8798 341.652 41.6398C339.742 42.4048 335.247 41.2798 334.462 43.8648C333.312 47.6648 339.282 48.5148 341.252 46.3848Z" fill="#3014B8"/>
<path d="M255.537 44.855C258.627 48.195 263.692 45.225 264.302 45.58L266.822 50.445C257.022 56.115 245.017 49.99 247.107 37.98C248.662 29.035 260.547 25.025 267.337 30.755L263.887 35.295C260.742 32.95 255.107 34.24 254.412 38.285C254.112 40.045 254.272 43.49 255.537 44.855Z" fill="#3014B8"/>
<path d="M277.382 22.5098L277.602 28.5398L282.387 29.0048V34.5098C280.897 33.8848 278.592 33.4348 277.387 34.7548V45.2548C277.387 46.5598 281.347 46.9648 282.382 46.0048L282.867 51.9848C268.552 55.4098 270.197 44.7798 270.367 34.5248L268.362 34.2898L267.882 29.0048H270.387V22.5098H277.387H277.382Z" fill="#3014B8"/>
<path d="M113.877 31.4998C112.272 31.3148 111.107 35.4048 110.142 35.4048C104.297 31.5398 98.4871 36.7598 100.987 43.1548C103.312 49.0998 110.202 45.0848 110.832 45.5498L113.377 50.5048C102.832 55.8748 91.3571 50.0898 93.4971 37.3798C94.3671 32.2148 100.712 28.1398 105.657 27.9948C106.982 27.9548 115.182 29.6798 113.872 31.4998H113.877Z" fill="#3014B8"/>
<path d="M319.382 29.01L318.882 32.505L322.522 28.905C323.952 28.41 325.407 27.795 326.817 28.575L326.882 34.51C324.787 34.395 322.607 34.36 320.917 35.795C320.692 35.985 319.377 37.635 319.377 37.755V52.005H312.377V29.005H319.382V29.01Z" fill="#3014B8"/>
<path d="M174.882 29.0099L174.387 32.5099C176.047 30.9899 176.462 29.5099 178.762 28.6449C184.062 26.6499 182.032 30.8549 182.382 34.5099C180.402 33.8349 174.877 35.3449 174.877 37.7599V52.0099H167.877V29.0099H174.882Z" fill="#3014B8"/>
</svg>
